<svg height="215.40994mm" viewBox="0 0 989.36019 763.26357" width="279.21942mm" xmlns="http://www.w3.org/2000/svg"><path d="m-1155.2633 1434.2633c-1.3599-.9187-5.2179-4.0478-8.5734-6.9536-3.3554-2.9058-9.863-8.0728-14.4613-11.4822-24.803-18.3903-43.8295-42.6121-61.1865-77.8938-4.4644-9.075-8.8782-17.625-9.8082-19-3.5494-5.2475-16.9431-31.9877-16.9431-33.8265 0-1.0608-.675-2.4889-1.5-3.1735-.825-.6847-1.5-1.6265-1.5-2.0929 0-.4663-1.0595-3.2237-2.3545-6.1275-1.2949-2.9038-2.6308-6.0671-2.9686-7.0296-.8692-2.4769-2.2171-2.2511-13.4392 2.2512-16.0032 6.4206-24.9607 8.2976-36.7377 7.6984-15.2406-.7754-25.4573-4.2422-42.2424-14.3338-9.583-5.7616-16.4795-11.3656-26.5056-21.5381-8.7106-8.8378-9.9722-10.6638-18.5362-26.8277-18.3433-34.6222-24.1177-67.6619-19.312-110.5 3.9716-35.403 7.9032-47.7962 22.5152-70.971 6.6945-10.6178 10.7144-15.529 12.7106-15.529.8962 0 3.3705-2.1375 5.4985-4.75 12.0479-14.79134 27.7447-26.8988 48.1456-37.13649 20.333-10.20356 32.1363-9.08145 53.396 5.07624 13.11 8.73042 25.8303 14.0595 25.8303 10.82137 0-.54386-3.6449-2.82149-8.0999-5.06139-5.4332-2.73175-10.1247-6.09064-14.25-10.2023-12.2945-12.25382-22.2621-20.94467-27.3903-23.88176-5.8833-3.36959-15.5254-6.38015-23.7086-7.40259-5.0795-.63463-5.9462-.41496-12.2586 3.10673-8.8221 4.9219-28.0779 17.9888-42.9003 29.1119-25.4329 19.0855-32.9137 24.33519-36.2434 25.43409-10.1486 3.3494-33.4329-4.13366-44.3529-14.25395-4.3777-4.05711-7.796-11.55178-7.796-17.09286 0-5.36759 3.3772-16.24597 8.4657-27.26903 3.8299-8.2965 11.1169-17.42171 16.0215-20.06301 1.932-1.04049 3.5128-2.1597 3.5128-2.48714 0-1.12081 8.7869-4.98431 17.145-7.53849 21.3476-6.52364 20.7333-6.25049 26.29-11.69135 2.9321-2.87101 7.9372-6.79501 11.1225-8.72001s7.8504-5.56787 10.367-8.09527c2.5165-2.5274 8.4005-7.19562 13.0755-10.37383 4.675-3.1782 8.959-6.34229 9.52-7.0313s4.2861-3.7098 8.278-6.71286c6.2179-4.67758 7.7328-6.4509 10.5705-12.37342 6.0407-12.60716 6.8683-16.26306 5.1836-22.8982-1.1779-4.63889-1.0926-5.23728 1.4919-10.46764 1.5077-3.05111 3.9651-8.47248 5.4609-12.04748 1.4959-3.575 4.3947-10.1 6.4418-14.5 7.9558-17.09942 9.1783-20.65878 14.0821-41 6.3754-26.44505 9.2776-32.75251 19.4619-42.29757 8.669-8.12483 22.4122-15.53885 43.8149-23.63672 17.5247-6.6306 21.001-7.57216 31.6944-8.58438 8.4366-.79859 22.7727.29193 25.9119 1.97107.8735.4672 3.0281 1.07623 4.7881 1.3534 4.4179.69577 21.8369 7.9052 33.4647 13.85051 22.2613 11.38216 37.8359 26.95313 57.7679 57.75453 6.4657 9.99164 8.7296 12.78448 9.7062 11.974 1.6503-1.36967 2.8918-.53843 5.8981 3.94922 1.3508 2.01627 3.47 5.07917 4.7095 6.80644 14.8428 20.68402 22.5046 36.6246 26.2865 54.68939.2107 1.00643.6919 2.8029 1.0693 3.99215 1.493 4.7039-2.5417-.5312-5.7145-7.41487-1.7511-3.79894-3.7921-6.90717-4.5357-6.90717-1.8442 0-1.6981 2.58807.5409 9.58484 2.5169 7.86526 6.1071 26.29784 6.1071 31.35446 0 2.22365-1.1848 7.53448-2.6329 11.80185-2.7489 8.10043-4.3671 11.00063-4.3671 7.82688 0-2.83205-3.9579-8.56803-5.912-8.56803-.9619 0-3.2869 2.1375-5.1666 4.75l-3.4177 4.75-.5717-4.26987c-.6994-5.22372-2.0165-6.67671-5.3042-5.85155-4.3008 1.07944-10.6953 10.64758-16.8341 25.18914-7.1095 16.84086-10.1038 20.78283-18.7433 24.67576-12.255 5.52203-13.2858 6.19035-14.7079 9.53609-1.9275 4.53459-5.1135 18.49681-5.8692 25.72043-.3452 3.3-1.0552 7.66858-1.5777 9.70795-1.3575 5.29832-6.8193 12.05192-10.6306 13.145-2.7375.78508-3.8806.46052-8.2474-2.34168-3.9987-2.56592-6.2149-3.28035-10.4918-3.38217-4.9933-.11889-5.7264.16761-9.2662 3.6209-2.1142 2.0625-4.5551 3.75-5.4244 3.75s-3.4774-2.05794-5.7959-4.5732c-2.3849-2.58727-4.8015-4.34828-5.5651-4.05527-1.5553.59683-3.4604 6.72422-3.4686 11.15596 0 1.66513-.7061 4.02763-1.5623 5.25-1.3106 1.87111-2.4927 2.22251-7.4769 2.22251-6.5284 0-7.5959.87376-9.878 8.08505-.6241 1.97178-2.4582 4.85315-4.0759 6.40299-1.6178 1.5499-2.7064 3.1983-2.4191 3.663.2872.4648 3.0837 2.0511 6.2144 3.5251 11.9465 5.6248 24.3518 14.2409 31.4215 21.8239 4.8472 5.199 11.7107 16.0794 14.6697 23.255 3.8899 9.4331 8.8557 31.5106 9.9519 44.245.9147 10.626.2308 24.489-1.863 37.7619-1.1 6.9724-1.0528 7.3754 1.1832 10.1109 1.2809 1.5669 3.0039 3.8535 3.8289 5.0814s2.5479 3.653 3.8287 5.3891c9.2517 12.5409 17.3185 27.4096 19.7521 36.4072 2.4067 8.8983 3.326 22.6252 2.1932 32.7495-1.0226 9.1388-1.0929 10.4411-.7567 14 .1039 1.1-.3766 5.7057-1.0678 10.2349-2.3163 15.1776 1.7524 31.9857 8.4854 35.0534 2.1777.9923 4.406-.021 21.2939-9.6847 12.079-6.9118 26.6159-14.1208 40.425-20.0473 22.4976-9.6552 28.9588-12.8493 29.5328-14.5993.1881-.5737-1.7302-3.4987-4.263-6.5-2.5329-3.0014-5.4656-6.4745-6.5173-7.718-4.8513-5.7364-18.5888-26.5422-22.9084-34.6957-8.7854-16.5824-16.064-36.7263-20.1677-55.8147-4.5173-21.0122-2.2868-47.3892 5.0411-59.614 1.4458-2.412 3.3386-5.562 4.2062-7 .8677-1.4381 4.2154-3.9646 7.4394-5.6146 5.3163-2.7208 6.6828-2.9852 14.6808-2.8403 8.2754.1499 9.4115.4443 18.436 4.7769 14.0632 6.7516 23.2448 13.5538 33.7025 24.9686 10.86698 11.8615 14.66382 16.4234 14.66382 17.6185 0 .4787-5.5125 4.2812-12.25002 8.45-6.7375 4.1689-14.5906 9.4803-17.4514 11.803-5.1762 4.2028-5.2017 4.2516-5.25 10.068-.089 10.6641 4.7892 22.8864 12.27 30.745 3.8509 4.0455 10.5901 5.5045 18.86844 4.0849 11.68013-2.0029 29.09963-11.4817 30.36365-16.5224.67644-2.6975-.16439-12.7118-1.56608-18.6522-2.72978-11.5689-2.99571-21.0971-.87917-31.5 1.11901-5.5 2.42112-11.125 2.89357-12.5.47246-1.375 1.14278-7.3426 1.48961-13.2614.34683-5.9187.82706-11.7687 1.06716-13 .24011-1.2312.70292-3.6454 1.02846-5.3648.5322-2.8109 1.03506-3.1869 4.98642-3.7285 2.41699-.3313 5.86487-.3618 7.66195-.068 5.04169.8247 19.17067 4.6462 20.06916 5.4282.44096.3838-1.08667 3.4345-3.39474 6.7792-4.12755 5.9815-4.19538 6.218-4.12875 14.3983.039 4.7873.7187 10.122 1.60162 12.5704 3.02588 8.3908 10.37142 15.9581 22.00801 22.6721 4.19328 2.4195 5.59799 2.7362 9.88487 2.2284 5.55279-.6576 15.30356-4.8904 22.2068-9.64 2.48624-1.7106 4.52044-2.9402 4.52044-2.7325 0 .2076-1.10836 3.4917-2.46302 7.298-1.35466 3.8062-4.03994 12.1543-5.96727 18.5512-4.51406 14.9824-10.51167 28.5596-16.50746 37.3693-2.6203 3.85-7.15822 11.275-10.08428 16.5-7.06024 12.6073-9.48845 16.1405-10.47694 15.2446-.45193-.4095-.52565-.2269-.16383.4059 1.22538 2.143-20.94539 31.3089-38.5872 50.7618-7.0125 7.7324-12.75 14.4351-12.75 14.8948 0 .4598-3.46515 5.1913-7.70033 10.5144-24.32959 30.5796-32.14729 40.288-36.78249 45.6785-2.8377 3.3-10.4843 12.75-16.9926 21-22.0903 28.0019-37.1447 44.1419-47.5026 50.9281-4.1371 2.7105-11.122 7.0724-15.522 9.693s-11.192 6.8155-15.0933 9.3218c-3.9013 2.5064-7.8388 4.5571-8.75 4.5571s-1.6567.4343-1.6567.9652c0 1.3845-13.3082 9.8794-18.1578 11.5904-5.6353 1.9883-14.763 1.8728-17.8697-.226zm189.02752-176.3296c0-.55-.45-1-1-1s-1 .45-1 1 .45 1 1 1 1-.45 1-1zm-470.00002-263.44102c0-.24254-.45-.7191-1-1.05902s-1-.14148-1 .44098.45 1.05902 1 1.05902 1-.19844 1-.44098zm-39 435.19922c-1.925-1.1419-6.425-3.9502-10-6.2407s-7.175-4.4647-8-4.8315c-.825-.3669-4.2623-2.3588-7.6385-4.4265-3.3762-2.0678-10.5762-6.4187-16-9.6687-32.2424-19.3202-44.7742-27.4176-62.3615-40.2949-10.0574-7.364-52.6251-35.8832-81.7059-54.7408-11.9915-7.776-24.1918-15.3197-39.7123-24.5551-2.3107-1.375-5.2994-3.3138-6.6415-4.3083-1.3422-.9945-7.6153-5.1764-13.9403-9.2932-6.325-4.1167-12.7557-8.8106-14.2905-10.4309-7.3119-7.7191-7.4093-20.1065-.296-37.6668 3.7446-9.2443 9.6452-22.0864 12.5439-27.3008.4586-.825 2.741-5.325 5.072-10 4.8847-9.7966 17.2981-31.2319 20.3779-35.1883 1.151-1.4786 3.3444-4.6286 4.8742-7 5.8322-9.0409 22.2756-30.9222 32.158-42.7928 3.8833-4.6646 8.1855-9.8382 9.5605-11.4969 3.4633-4.1779 16.7082-18.1196 34.6744-36.4988 17.0059-17.3968 23.7345-25.6072 33.8645-41.3223 6.527-10.1256 22.1204-32.59479 23.3881-33.70094.3152-.275 2.364-2.75 4.5529-5.5 12.6128-15.84584 27.8502-26.90099 46.8567-33.99597l6.8367-2.55206-3.4827 4.27402c-1.9154 2.3507-4.3169 5.67471-5.3366 7.38669-1.0197 1.71197-3.6871 5.76197-5.9275 9-8.1498 11.77862-12.0966 19.98543-23.03 47.88736-1.9396 4.95-3.9403 9.9-4.4459 11s-2.3002 6.05-3.9881 11-6.6171 16.2098-10.9537 25.0218c-9.3685 19.0368-9.5866 19.5823-11.5085 28.7946-2.717 13.0233-2.0462 22.5958 2.9758 42.4699 2.4619 9.7425 5.3909 20.8637 6.509 24.7137 1.8751 6.4569 5.9645 26.3803 5.9997 29.23.01.6766-6.0499 4.2091-13.4629 7.8501-12.0856 5.9361-13.8678 7.151-17.25 11.7588-7.0121 9.553-11.2655 16.1547-11.2687 17.4901 0 .731 5.6324 7.256 12.5203 14.5 13.7953 14.5084 27.3805 32.5028 38.3349 50.7767 3.9279 6.5525 7.1416 12.1352 7.1416 12.406 0 1.1165 19.4444 30.7112 26.2058 39.8856 4.0118 5.4436 10.7817 13.4231 15.0442 17.7323s7.75 8.2413 7.75 8.738 1.7784 6.6922 3.9519 13.7677c7.7344 25.1777 16.0347 60.5419 14.1488 60.2818-.3304-.046-2.1757-1.0171-4.1007-2.1589zm689.00002-291.4265c-8.75242-1.2994-9.36217-1.4898-7.93081-2.4765 1.03542-.7137.76857-.7985-.96564-.3069-2.63804.7479-14.42172-4.2245-13.50945-5.7006.28038-.4537-.0845-.5968-.81075-.3181-2.47163.9485-16.25256-9.292-27.15172-20.1762-17.12088-17.0974-25.6239-28.8621-42.8877-59.3391-3.99037-7.0444-11.73849-27.9583-14.82443-40.0143-5.47459-21.38793-4.60432-46.20873 2.05758-58.68437 2.63341-4.93152 7.90796-10.50475 9.19121-9.71166.68881.4257.86682.26182.44934-.41368-.97395-1.57588 6.29234-5.93183 12.66309-7.5912 4.30674-1.12176 6.56439-1.15178 12.24956-.16287 3.83335.6668 8.47404 1.9996 10.31265 2.96179 1.83861.96218 3.60116 1.4912 3.91677 1.17558.77595-.77594 12.05387 5.49979 19.05706 10.60453 11.78894 8.59315 34.8989 34.69178 38.0518 42.9728.4919 1.29197 3.10884 5.72404 5.81544 9.84908 10.3894 15.8341 14.1133 23.4299 19.12 39 9.1655 28.5038 11.1766 41.7926 8.7776 58-2.4256 16.3865-3.7918 21.169-7.9321 27.7668-3.9266 6.2573-10.3223 10.9564-13.3374 9.7994-.7788-.2988-1.1637-.1351-.8553.3638.4888.7909-1.1016 1.3232-7.4568 2.4961-.825.1523-2.625.1098-4-.094zm-47-162.33174c0-.55-.45-1-1-1s-1 .45-1 1 .45 1 1 1 1-.45 1-1zm-250.20262-88.5c.6186-1.1 2.7493-3.8 4.7347-6l3.6098-4-2.9865 4.55752c-3.2228 4.91793-7.5151 9.27799-5.358 5.44248zm15.9351-1c2.4514-3.58444 6.093-7.00789 6.7527-6.34817.2601.2601-1.6145 2.46984-4.1657 4.91054-3.5981 3.44218-4.1784 3.76467-2.587 1.43763z" fill="#dd2622" transform="translate(1741.0848 -672.64794)"/></svg>